<svg xmlns="http://www.w3.org/2000/svg" viewBox="0 0 100 100"><defs><style>.cls-1{fill:#4c0045;}.cls-2{fill:#fff;}.cls-3{fill:gold;}</style></defs><title>blindHelpApp-white</title><g id="Capa_1" data-name="Capa 1"><rect class="cls-1" width="100" height="100" rx="50"/><path class="cls-2" d="M84.08,46.87a38.45,38.45,0,0,0-5.62-7.16,46.21,46.21,0,0,0-7.1-6l-2.45,4.35a40,40,0,0,1,11,11.44,40.16,40.16,0,0,1-11.73,12,32.4,32.4,0,0,1-15.27,5.33L50,72a37.21,37.21,0,0,0,16.32-3.69A42.07,42.07,0,0,0,79.84,57.88a43.05,43.05,0,0,0,4.24-5.64,5,5,0,0,0,0-5.37Z"/><path class="cls-2" d="M60.41,21.87,57,27.8a38.1,38.1,0,0,0-7-.66,36.94,36.94,0,0,0-19.3,5.29A45.44,45.44,0,0,0,15.92,46.87a5,5,0,0,0,0,5.37A46.58,46.58,0,0,0,24,61.77,40.45,40.45,0,0,0,34.28,68.5c-.82,1.4-3,5.79-3,5.79l6.65,3.84L67,25.69ZM36.73,64.14A38.34,38.34,0,0,1,20.12,49.55,38.18,38.18,0,0,1,34.94,35.82a17.41,17.41,0,0,0,4.83,22.84Zm9.54-17.31a6.28,6.28,0,1,1,6-10.44Z"/><path class="cls-3" d="M75.29,74.19a3.93,3.93,0,1,1-7.86,0c0-2.17,3.93-6.49,3.93-6.49S75.29,72,75.29,74.19Z"/></g></svg>